<svg xmlns="http://www.w3.org/2000/svg" width="430" height="900" viewBox="0 0 430 900" fill="none" preserveAspectRatio="xMidYMid slice">
  <defs>
    <linearGradient id="g" x1="0" y1="0" x2="1" y2="1">
      <stop offset="0%" stop-color="#F5EFE6"/>
      <stop offset="100%" stop-color="#EDE3D2"/>
    </linearGradient>
  </defs>
  <rect width="430" height="900" fill="url(#g)"/>
  <g stroke="#FFFFFF" stroke-opacity="0.55" fill="none" stroke-width="1">
    <path d="M-50 120 Q 100 60 250 140 T 600 110"/>
    <path d="M-50 160 Q 110 95 260 175 T 600 145"/>
    <path d="M-50 220 Q 120 150 270 230 T 600 200"/>
    <path d="M-50 320 Q 130 240 290 320 T 620 290"/>
    <path d="M-50 440 Q 140 360 300 440 T 620 410"/>
    <path d="M-50 560 Q 150 480 310 560 T 630 530"/>
    <path d="M-50 680 Q 160 600 320 680 T 640 650"/>
    <path d="M-50 800 Q 170 720 330 800 T 650 770"/>
  </g>
  <g stroke="#C9B79B" stroke-opacity="0.18" fill="none" stroke-width="0.6">
    <path d="M-50 90 Q 100 30 250 110 T 600 80"/>
    <path d="M-50 380 Q 130 300 290 380 T 620 350"/>
    <path d="M-50 620 Q 150 540 310 620 T 630 590"/>
  </g>
</svg>
