<svg xmlns="http://www.w3.org/2000/svg" width="430" height="900" viewBox="0 0 430 900" fill="none" preserveAspectRatio="xMidYMid slice">
  <rect width="430" height="900" fill="#FFFFFF"/>
  <g stroke="#1B3A6B" stroke-opacity="0.05" fill="none" stroke-width="1">
    <path d="M-50 120 Q 100 60 250 140 T 600 110"/>
    <path d="M-50 220 Q 120 150 270 230 T 600 200"/>
    <path d="M-50 340 Q 130 260 290 340 T 620 310"/>
    <path d="M-50 480 Q 140 400 300 480 T 620 450"/>
    <path d="M-50 620 Q 150 540 310 620 T 630 590"/>
    <path d="M-50 760 Q 160 680 320 760 T 640 730"/>
  </g>
  <g stroke="#1B3A6B" stroke-opacity="0.08" fill="none" stroke-width="0.6">
    <path d="M-50 90 Q 100 30 250 110 T 600 80"/>
    <path d="M-50 400 Q 130 320 290 400 T 620 370"/>
    <path d="M-50 680 Q 150 600 310 680 T 630 650"/>
  </g>
</svg>
